<svg xmlns="http://www.w3.org/2000/svg" xmlns:xlink="http://www.w3.org/1999/xlink" width="500" zoomAndPan="magnify" viewBox="0 0 375 374.999991" height="500" preserveAspectRatio="xMidYMid meet" version="1.0"><defs><clipPath id="fdc8b45536"><path d="M 79 28 L 375 28 L 375 374.84375 L 79 374.84375 Z M 79 28 " clip-rule="nonzero"/></clipPath><clipPath id="2321773fe0"><path d="M 79 28 L 117 28 L 117 374.84375 L 79 374.84375 Z M 79 28 " clip-rule="nonzero"/></clipPath></defs><g clip-path="url(#fdc8b45536)"><path fill="#837683" d="M 96.253906 28.183594 C 86.890625 28.183594 79.261719 35.828125 79.261719 45.183594 L 79.261719 357.785156 C 79.261719 367.144531 86.890625 374.765625 96.253906 374.765625 L 358.097656 374.765625 C 367.460938 374.765625 375.113281 367.144531 375.113281 357.785156 L 375.113281 45.183594 C 375.113281 35.828125 367.460938 28.183594 358.097656 28.183594 Z M 96.253906 28.183594 " fill-opacity="1" fill-rule="evenodd"/></g><g clip-path="url(#2321773fe0)"><path fill="#685e68" d="M 96.253906 28.183594 C 86.890625 28.183594 79.261719 35.828125 79.261719 45.183594 L 79.261719 357.785156 C 79.261719 367.144531 86.890625 374.765625 96.253906 374.765625 L 116.828125 374.765625 L 116.828125 28.183594 Z M 96.253906 28.183594 " fill-opacity="1" fill-rule="evenodd"/></g><path fill="#eceff1" d="M 110.601562 51.828125 L 343.773438 51.828125 C 348 51.828125 351.449219 55.273438 351.449219 59.5 L 351.449219 343.449219 C 351.449219 347.695312 348 351.140625 343.773438 351.140625 L 110.601562 351.140625 C 106.355469 351.140625 102.90625 347.695312 102.90625 343.449219 L 102.90625 59.5 C 102.90625 55.273438 106.355469 51.828125 110.601562 51.828125 Z M 110.601562 51.828125 " fill-opacity="1" fill-rule="evenodd"/><path fill="#d1d1d6" d="M 110.601562 51.828125 L 116.828125 51.828125 L 116.828125 351.140625 L 110.601562 351.140625 C 106.355469 351.140625 102.90625 347.695312 102.90625 343.449219 L 102.90625 59.5 C 102.90625 55.273438 106.355469 51.828125 110.601562 51.828125 Z M 110.601562 51.828125 " fill-opacity="1" fill-rule="evenodd"/><path fill="#e3a76f" d="M 284.964844 20.515625 L 255.269531 20.515625 C 252.222656 7.84375 240.8125 -1.578125 227.175781 -1.578125 C 213.5625 -1.578125 202.132812 7.84375 199.085938 20.515625 L 169.414062 20.515625 C 165.164062 20.515625 161.714844 23.960938 161.714844 28.183594 L 161.714844 57.007812 C 161.714844 61.230469 165.164062 64.675781 169.414062 64.675781 L 284.964844 64.675781 C 289.191406 64.675781 292.636719 61.230469 292.636719 57.007812 L 292.636719 28.183594 C 292.636719 23.960938 289.191406 20.515625 284.964844 20.515625 Z M 284.964844 20.515625 " fill-opacity="1" fill-rule="evenodd"/><path fill="#eceff1" d="M 227.175781 29.828125 C 222.972656 29.828125 219.523438 26.402344 219.523438 22.203125 C 219.523438 17.980469 222.972656 14.558594 227.175781 14.558594 C 231.378906 14.558594 234.828125 17.980469 234.828125 22.203125 C 234.828125 26.402344 231.378906 29.828125 227.175781 29.828125 Z M 227.175781 29.828125 " fill-opacity="1" fill-rule="evenodd"/><path fill="#c48958" d="M 169.414062 20.515625 C 165.164062 20.515625 161.714844 23.960938 161.714844 28.183594 L 161.714844 57.007812 C 161.714844 61.230469 165.164062 64.675781 169.414062 64.675781 L 284.964844 64.675781 C 289.191406 64.675781 292.636719 61.230469 292.636719 57.007812 L 177.085938 57.007812 C 172.859375 57.007812 169.414062 53.542969 169.414062 49.320312 Z M 169.414062 20.515625 " fill-opacity="1" fill-rule="evenodd"/><path fill="#a79ba7" d="M 230.625 309.492188 C 234.605469 309.492188 237.808594 306.269531 237.808594 302.289062 C 237.808594 298.332031 234.605469 295.109375 230.625 295.109375 L 136.226562 295.109375 C 132.265625 295.109375 129.042969 298.332031 129.042969 302.289062 C 129.042969 306.269531 132.265625 309.492188 136.226562 309.492188 Z M 230.625 140.796875 C 234.605469 140.796875 237.808594 137.578125 237.808594 133.597656 C 237.808594 129.640625 234.605469 126.417969 230.625 126.417969 L 136.226562 126.417969 C 132.265625 126.417969 129.042969 129.640625 129.042969 133.597656 C 129.042969 137.578125 132.265625 140.796875 136.226562 140.796875 Z M 230.625 110.214844 C 234.605469 110.214844 237.808594 107.015625 237.808594 103.039062 C 237.808594 99.058594 234.605469 95.859375 230.625 95.859375 L 136.226562 95.859375 C 132.265625 95.859375 129.042969 99.058594 129.042969 103.039062 C 129.042969 107.015625 132.265625 110.214844 136.226562 110.214844 Z M 230.625 194.5625 C 234.605469 194.5625 237.808594 191.363281 237.808594 187.382812 C 237.808594 183.40625 234.605469 180.203125 230.625 180.203125 L 136.226562 180.203125 C 132.265625 180.203125 129.042969 183.40625 129.042969 187.382812 C 129.042969 191.363281 132.265625 194.5625 136.226562 194.5625 Z M 230.625 225.144531 C 234.605469 225.144531 237.808594 221.921875 237.808594 217.941406 C 237.808594 213.988281 234.605469 210.765625 230.625 210.765625 L 136.226562 210.765625 C 132.265625 210.765625 129.042969 213.988281 129.042969 217.941406 C 129.042969 221.921875 132.265625 225.144531 136.226562 225.144531 Z M 230.625 278.886719 C 234.582031 278.886719 237.785156 275.683594 237.785156 271.730469 C 237.785156 267.773438 234.582031 264.574219 230.625 264.574219 L 136.226562 264.574219 C 132.289062 264.574219 129.0625 267.773438 129.0625 271.730469 C 129.0625 275.683594 132.289062 278.886719 136.226562 278.886719 Z M 230.625 278.886719 " fill-opacity="1" fill-rule="nonzero"/><path fill="#8ac9fe" d="M 312.566406 91.523438 L 270.0625 91.523438 C 266.992188 91.523438 264.5 94.035156 264.5 97.082031 L 264.5 139.554688 C 264.5 142.621094 266.992188 145.109375 270.0625 145.109375 L 312.566406 145.109375 C 315.636719 145.109375 318.128906 142.621094 318.128906 139.554688 L 318.128906 97.082031 C 318.128906 94.035156 315.636719 91.523438 312.566406 91.523438 Z M 312.566406 91.523438 " fill-opacity="1" fill-rule="evenodd"/><path fill="#60b7ff" d="M 279.046875 91.523438 L 270.0625 91.523438 C 266.992188 91.523438 264.5 94.035156 264.5 97.082031 L 264.5 139.554688 C 264.5 142.621094 266.992188 145.109375 270.0625 145.109375 L 279.046875 145.109375 C 276 145.109375 273.488281 142.621094 273.488281 139.554688 L 273.488281 97.082031 C 273.488281 94.035156 276 91.523438 279.046875 91.523438 Z M 279.046875 91.523438 " fill-opacity="1" fill-rule="evenodd"/><path fill="#eceff1" d="M 275.859375 123.308594 C 273.054688 120.507812 273.054688 115.949219 275.859375 113.148438 C 278.683594 110.328125 283.21875 110.328125 286.023438 113.148438 L 287.734375 114.839844 L 296.878906 106.570312 C 299.8125 103.90625 304.351562 104.125 307.019531 107.058594 C 309.6875 109.972656 309.46875 114.527344 306.53125 117.195312 L 292.628906 129.796875 L 292.585938 129.839844 C 289.78125 132.640625 285.222656 132.640625 282.421875 129.839844 Z M 275.859375 123.308594 " fill-opacity="1" fill-rule="nonzero"/><path fill="#6cf5c2" d="M 312.566406 175.871094 L 270.0625 175.871094 C 266.992188 175.871094 264.5 178.382812 264.5 181.425781 L 264.5 223.921875 C 264.5 226.964844 266.992188 229.457031 270.0625 229.457031 L 312.566406 229.457031 C 315.636719 229.457031 318.128906 226.964844 318.128906 223.921875 L 318.128906 181.425781 C 318.128906 178.382812 315.636719 175.871094 312.566406 175.871094 Z M 312.566406 175.871094 " fill-opacity="1" fill-rule="evenodd"/><path fill="#00e499" d="M 279.046875 175.871094 L 270.0625 175.871094 C 266.992188 175.871094 264.5 178.382812 264.5 181.425781 L 264.5 223.921875 C 264.5 226.964844 266.992188 229.457031 270.0625 229.457031 L 279.046875 229.457031 C 276 229.457031 273.488281 226.964844 273.488281 223.921875 L 273.488281 181.425781 C 273.488281 178.382812 276 175.871094 279.046875 175.871094 Z M 279.046875 175.871094 " fill-opacity="1" fill-rule="evenodd"/><path fill="#eceff1" d="M 275.859375 207.652344 C 273.054688 204.851562 273.054688 200.296875 275.859375 197.496094 C 278.683594 194.671875 283.21875 194.671875 286.023438 197.496094 L 287.734375 199.207031 L 296.878906 190.917969 C 299.8125 188.25 304.351562 188.472656 307.019531 191.40625 C 309.6875 194.316406 309.46875 198.875 306.53125 201.539062 L 292.628906 214.144531 L 292.585938 214.1875 C 289.78125 216.988281 285.222656 216.988281 282.421875 214.1875 Z M 275.859375 207.652344 " fill-opacity="1" fill-rule="nonzero"/><path fill="#ffe177" d="M 312.566406 260.214844 L 270.0625 260.214844 C 266.992188 260.214844 264.5 262.726562 264.5 265.773438 L 264.5 308.269531 C 264.5 311.3125 266.992188 313.800781 270.0625 313.800781 L 312.566406 313.800781 C 315.636719 313.800781 318.128906 311.3125 318.128906 308.269531 L 318.128906 265.773438 C 318.128906 262.726562 315.636719 260.214844 312.566406 260.214844 Z M 312.566406 260.214844 " fill-opacity="1" fill-rule="evenodd"/><path fill="#ffd064" d="M 279.046875 260.214844 L 270.0625 260.214844 C 266.992188 260.214844 264.5 262.726562 264.5 265.773438 L 264.5 308.269531 C 264.5 311.3125 266.992188 313.800781 270.0625 313.800781 L 279.046875 313.800781 C 276 313.800781 273.488281 311.3125 273.488281 308.269531 L 273.488281 265.773438 C 273.488281 262.726562 276 260.214844 279.046875 260.214844 Z M 279.046875 260.214844 " fill-opacity="1" fill-rule="evenodd"/><path fill="#eceff1" d="M 275.859375 292 C 273.054688 289.199219 273.054688 284.640625 275.859375 281.839844 C 278.683594 279.019531 283.21875 279.019531 286.023438 281.839844 L 287.734375 283.554688 L 296.878906 275.261719 C 299.8125 272.597656 304.351562 272.816406 307.019531 275.753906 C 309.6875 278.664062 309.46875 283.21875 306.53125 285.886719 L 292.628906 298.488281 L 292.585938 298.535156 C 289.78125 301.332031 285.222656 301.332031 282.421875 298.535156 Z M 275.859375 292 " fill-opacity="1" fill-rule="nonzero"/><path fill="#fe646f" d="M 137.554688 214.160156 L 93.378906 232.089844 L 128.171875 306.753906 C 128.453125 307.347656 128.976562 307.703125 129.617188 307.726562 C 130.253906 307.75 130.824219 307.441406 131.132812 306.898438 L 144.121094 284.613281 L 169.527344 289.042969 C 170.167969 289.160156 170.757812 288.921875 171.136719 288.402344 C 171.542969 287.90625 171.613281 287.265625 171.328125 286.671875 Z M 137.554688 214.160156 " fill-opacity="1" fill-rule="evenodd"/><path fill="#fd4755" d="M 125.617188 301.273438 L 136.136719 283.222656 L 144.121094 284.613281 L 131.132812 306.898438 C 130.824219 307.441406 130.253906 307.75 129.617188 307.726562 C 128.976562 307.703125 128.453125 307.347656 128.171875 306.753906 Z M 162.644531 287.84375 C 162.753906 287.46875 162.71875 287.058594 162.535156 286.671875 L 130.160156 217.164062 L 137.554688 214.160156 L 171.328125 286.671875 C 171.613281 287.265625 171.542969 287.90625 171.136719 288.402344 C 170.757812 288.921875 170.167969 289.160156 169.527344 289.042969 Z M 162.644531 287.84375 " fill-opacity="1" fill-rule="evenodd"/><path fill="#fe646f" d="M 47.898438 214.160156 L 92.074219 232.089844 L 57.285156 306.753906 C 57.023438 307.347656 56.476562 307.703125 55.839844 307.726562 C 55.199219 307.75 54.628906 307.441406 54.320312 306.898438 L 41.355469 284.613281 L 15.925781 289.042969 C 15.289062 289.160156 14.695312 288.921875 14.316406 288.402344 C 13.914062 287.90625 13.839844 287.265625 14.125 286.671875 Z M 47.898438 214.160156 " fill-opacity="1" fill-rule="evenodd"/><path fill="#fd4755" d="M 22.8125 287.84375 L 15.925781 289.042969 C 15.289062 289.160156 14.695312 288.921875 14.316406 288.402344 C 13.914062 287.90625 13.839844 287.265625 14.125 286.671875 L 47.898438 214.160156 L 55.292969 217.164062 L 22.921875 286.671875 C 22.734375 287.0625 22.699219 287.46875 22.8125 287.84375 Z M 59.839844 301.269531 L 57.285156 306.753906 C 57.023438 307.347656 56.476562 307.703125 55.839844 307.726562 C 55.199219 307.75 54.628906 307.441406 54.320312 306.898438 L 41.355469 284.613281 L 49.34375 283.222656 Z M 59.839844 301.269531 " fill-opacity="1" fill-rule="evenodd"/><path fill="#ffe177" d="M 104.019531 90.828125 L 115.371094 99.328125 C 118.476562 101.648438 121.722656 102.835938 125.609375 103.046875 L 139.757812 103.828125 C 148.21875 104.300781 155.117188 110.082031 157.035156 118.324219 L 160.285156 132.128906 C 161.160156 135.894531 162.890625 138.902344 165.734375 141.554688 L 176.066406 151.238281 C 182.253906 157.042969 183.816406 165.898438 179.976562 173.453125 L 173.578125 186.097656 C 171.847656 189.554688 171.234375 192.964844 171.707031 196.828125 L 173.390625 210.894531 C 174.386719 219.300781 169.90625 227.089844 162.085938 230.429688 L 149.074219 235.996094 C 145.496094 237.511719 142.839844 239.761719 140.707031 243.003906 L 132.957031 254.847656 C 128.3125 261.949219 119.875 265.003906 111.746094 262.566406 L 98.167969 258.46875 C 94.46875 257.332031 90.984375 257.332031 87.289062 258.46875 L 73.707031 262.566406 C 65.578125 265.003906 57.140625 261.949219 52.496094 254.847656 L 44.746094 243.003906 C 42.613281 239.761719 39.957031 237.511719 36.378906 235.996094 L 23.367188 230.429688 C 15.570312 227.089844 11.070312 219.300781 12.0625 210.894531 L 13.746094 196.828125 C 14.222656 192.964844 13.605469 189.554688 11.875 186.097656 L 5.476562 173.453125 C 1.636719 165.898438 3.199219 157.042969 9.386719 151.238281 L 19.71875 141.554688 C 22.5625 138.902344 24.292969 135.894531 25.171875 132.128906 L 28.417969 118.324219 C 30.335938 110.082031 37.234375 104.300781 45.695312 103.828125 L 59.84375 103.046875 C 63.730469 102.835938 67 101.648438 70.082031 99.328125 L 81.433594 90.828125 C 88.234375 85.761719 97.21875 85.761719 104.019531 90.828125 Z M 104.019531 90.828125 " fill-opacity="1" fill-rule="evenodd"/><path fill="#ffd064" d="M 88.332031 87.558594 C 93.644531 86.257812 99.347656 87.347656 104.019531 90.828125 L 115.371094 99.328125 C 118.476562 101.648438 121.722656 102.835938 125.609375 103.046875 L 139.757812 103.828125 C 148.21875 104.300781 155.117188 110.082031 157.035156 118.324219 L 160.285156 132.128906 C 161.160156 135.894531 162.890625 138.902344 165.734375 141.554688 L 176.066406 151.238281 C 182.253906 157.042969 183.816406 165.898438 179.976562 173.453125 L 173.578125 186.097656 C 171.847656 189.554688 171.234375 192.964844 171.707031 196.828125 L 173.390625 210.894531 C 174.386719 219.300781 169.90625 227.089844 162.085938 230.429688 L 149.074219 235.996094 C 145.496094 237.511719 142.839844 239.761719 140.707031 243.003906 L 132.957031 254.847656 C 128.53125 261.613281 120.667969 264.707031 112.902344 262.875 C 117.410156 261.785156 121.4375 259.011719 124.164062 254.847656 L 131.914062 243.003906 C 134.046875 239.761719 136.699219 237.511719 140.28125 235.996094 L 153.292969 230.429688 C 161.113281 227.089844 165.589844 219.300781 164.59375 210.894531 L 162.914062 196.828125 C 162.4375 192.964844 163.054688 189.554688 164.785156 186.097656 L 171.183594 173.453125 C 175.023438 165.898438 173.460938 157.042969 167.273438 151.238281 L 156.941406 141.554688 C 154.097656 138.902344 152.367188 135.894531 151.488281 132.128906 L 148.242188 118.324219 C 146.324219 110.082031 139.425781 104.300781 130.964844 103.828125 L 116.816406 103.046875 C 112.929688 102.835938 109.683594 101.648438 106.578125 99.328125 L 95.226562 90.828125 C 93.097656 89.242188 90.753906 88.152344 88.332031 87.558594 Z M 88.332031 258.175781 C 87.984375 258.265625 87.636719 258.363281 87.289062 258.46875 L 73.707031 262.566406 C 70.347656 263.574219 66.933594 263.644531 63.757812 262.875 C 64.140625 262.785156 64.527344 262.683594 64.914062 262.566406 L 78.492188 258.46875 C 81.84375 257.441406 85.015625 257.34375 88.332031 258.175781 Z M 88.332031 258.175781 " fill-opacity="1" fill-rule="evenodd"/><path fill="#eceff1" d="M 92.742188 236.304688 C 126.382812 236.304688 153.851562 208.855469 153.851562 175.210938 C 153.851562 141.566406 126.382812 114.117188 92.742188 114.117188 C 59.070312 114.117188 31.601562 141.566406 31.601562 175.210938 C 31.601562 208.855469 59.070312 236.304688 92.742188 236.304688 Z M 92.742188 236.304688 " fill-opacity="1" fill-rule="evenodd"/><path fill="#d1d1d6" d="M 98.167969 114.359375 C 67.023438 117.121094 42.457031 143.394531 42.457031 175.210938 C 42.457031 207.027344 67.023438 233.300781 98.167969 236.0625 C 96.378906 236.222656 94.570312 236.304688 92.742188 236.304688 C 59.070312 236.304688 31.601562 208.855469 31.601562 175.210938 C 31.601562 141.566406 59.070312 114.117188 92.742188 114.117188 C 94.570312 114.117188 96.378906 114.199219 98.167969 114.359375 Z M 98.167969 114.359375 " fill-opacity="1" fill-rule="evenodd"/><path fill="#f6dccd" d="M 80.03125 167.847656 C 80.03125 167.847656 94.347656 154.660156 95.609375 144.683594 C 96.191406 140.09375 96.214844 137.132812 96.066406 135.269531 C 95.855469 134.589844 96.011719 133.851562 96.476562 133.316406 C 96.941406 132.777344 97.648438 132.519531 98.351562 132.628906 C 101.59375 133.089844 106.519531 135.027344 107.433594 141.929688 C 108.808594 152.367188 106.285156 160.632812 106.285156 160.632812 L 123.464844 160.632812 C 128.734375 160.632812 133.058594 164.804688 133.246094 170.066406 C 133.457031 176.308594 132.921875 184.519531 130.964844 191.605469 C 128.675781 199.863281 121.15625 205.582031 112.582031 205.582031 C 100.203125 205.582031 80.03125 205.582031 80.03125 205.582031 Z M 80.03125 167.847656 " fill-opacity="1" fill-rule="evenodd"/><path fill="#f1cbbc" d="M 95.980469 134.527344 C 96.007812 134.085938 96.175781 133.660156 96.476562 133.316406 C 96.941406 132.777344 97.648438 132.519531 98.351562 132.628906 C 101.59375 133.089844 106.519531 135.027344 107.433594 141.929688 C 108.808594 152.367188 106.285156 160.632812 106.285156 160.632812 L 98.941406 160.632812 C 98.941406 160.632812 101.46875 152.367188 100.089844 141.929688 C 99.597656 138.1875 97.925781 135.90625 95.980469 134.527344 Z M 116.121094 160.632812 L 123.464844 160.632812 C 128.734375 160.632812 133.058594 164.804688 133.246094 170.066406 C 133.457031 176.308594 132.921875 184.519531 130.964844 191.605469 C 128.675781 199.863281 121.15625 205.582031 112.582031 205.582031 C 110.332031 205.582031 107.832031 205.582031 105.238281 205.582031 C 113.816406 205.582031 121.335938 199.863281 123.621094 191.605469 C 125.582031 184.519531 126.117188 176.308594 125.902344 170.066406 C 125.714844 164.804688 121.390625 160.632812 116.121094 160.632812 Z M 116.121094 160.632812 " fill-opacity="1" fill-rule="evenodd"/><path fill="#837683" d="M 80.03125 160.523438 L 80.03125 207.210938 C 80.03125 208.421875 79.046875 209.402344 77.835938 209.402344 L 63.84375 209.402344 C 62.632812 209.402344 61.648438 208.421875 61.648438 207.210938 L 61.648438 160.523438 C 61.648438 159.3125 62.632812 158.332031 63.84375 158.332031 L 77.835938 158.332031 C 79.046875 158.332031 80.03125 159.3125 80.03125 160.523438 Z M 80.03125 160.523438 " fill-opacity="1" fill-rule="evenodd"/><path fill="#685e68" d="M 80.03125 206.269531 L 80.03125 207.210938 C 80.03125 208.421875 79.046875 209.402344 77.835938 209.402344 L 63.84375 209.402344 C 62.632812 209.402344 61.648438 208.421875 61.648438 207.210938 L 61.648438 160.523438 C 61.648438 159.3125 62.632812 158.332031 63.84375 158.332031 L 64.566406 158.332031 L 64.566406 204.074219 C 64.566406 205.285156 65.550781 206.269531 66.761719 206.269531 Z M 80.03125 206.269531 " fill-opacity="1" fill-rule="evenodd"/></svg>